<svg width="21" height="21" viewBox="0 0 21 21" fill="none" xmlns="http://www.w3.org/2000/svg">
<path fill-rule="evenodd" clip-rule="evenodd" d="M5.54339 17.4519C6.25739 17.4519 6.83839 18.0319 6.83839 18.7459C6.83839 19.4599 6.25739 20.0409 5.54339 20.0409C4.82939 20.0409 4.24939 19.4599 4.24939 18.7459C4.24939 18.0319 4.82939 17.4519 5.54339 17.4519ZM16.8237 17.4519C17.5387 17.4519 18.1197 18.0319 18.1197 18.7459C18.1197 19.4599 17.5387 20.0409 16.8237 20.0409C16.1097 20.0409 15.5297 19.4599 15.5297 18.7459C15.5297 18.0319 16.1097 17.4519 16.8237 17.4519ZM1.26759 0.509487L3.34759 0.869487C3.68259 0.928487 3.93759 1.20649 3.96659 1.54649L4.20159 4.34749L5.07544 4.34786C5.21804 4.34793 5.35913 4.34799 5.49871 4.34805L7.10302 4.34882C7.2309 4.34888 7.35735 4.34894 7.48238 4.34901L9.25378 4.34998C9.36506 4.35005 9.47501 4.35011 9.58364 4.35018L10.825 4.35097C10.9233 4.35103 11.0204 4.3511 11.1163 4.35117L12.2081 4.35197C12.2943 4.35204 12.3793 4.35211 12.4632 4.35217L13.4151 4.35299C13.49 4.35306 13.5638 4.35313 13.6365 4.3532L14.2621 4.35382C14.3285 4.35389 14.3939 4.35396 14.4582 4.35403L15.1828 4.35487C15.2393 4.35494 15.2949 4.35501 15.3495 4.35508L15.9613 4.35594C16.0087 4.35601 16.0552 4.35608 16.101 4.35615L16.4898 4.3568C16.5305 4.35687 16.5704 4.35695 16.6096 4.35702L17.0427 4.3579C17.0758 4.35797 17.1082 4.35804 17.1399 4.35812L17.4065 4.35878C17.4341 4.35886 17.461 4.35893 17.4873 4.35901L17.773 4.35991C17.7945 4.35998 17.8153 4.36006 17.8356 4.36014L18.0034 4.36082C18.0204 4.3609 18.037 4.36097 18.053 4.36105L18.2227 4.36197C18.2351 4.36205 18.247 4.36213 18.2584 4.36221L18.351 4.36291C18.3601 4.36299 18.3688 4.36307 18.3772 4.36315L18.4438 4.36386C18.4503 4.36393 18.4564 4.36401 18.4623 4.36409L18.5076 4.36481C18.5118 4.36489 18.5159 4.36497 18.5197 4.36505L18.5483 4.36578C18.551 4.36586 18.5534 4.36594 18.5557 4.36602L18.5764 4.367C18.5777 4.36708 18.5789 4.36716 18.58 4.36725C18.5897 4.36815 18.5912 4.36832 18.5926 4.36849C19.1496 4.44949 19.6396 4.74049 19.9736 5.18849C20.3076 5.63549 20.4476 6.18649 20.3676 6.73849L19.4186 13.2965C19.2396 14.5445 18.1556 15.4855 16.8956 15.4855H5.97459C4.65759 15.4855 3.54259 14.4575 3.43559 13.1425L2.51959 2.24849L1.01259 1.98849C0.603593 1.91649 0.330593 1.52949 0.400593 1.12049C0.472593 0.711487 0.867593 0.445487 1.26759 0.509487ZM4.87483 5.84783L4.32759 5.84749L4.93059 13.0195C4.97459 13.5715 5.42559 13.9855 5.97659 13.9855H16.8936C17.4146 13.9855 17.8596 13.5975 17.9336 13.0825L18.8836 6.52349C18.9056 6.36749 18.8666 6.21149 18.7716 6.08549C18.6776 5.95849 18.5396 5.87649 18.3836 5.85449C18.3764 5.85476 18.3591 5.85502 18.3323 5.85525L18.2235 5.85587C18.2008 5.85596 18.1757 5.85605 18.1485 5.85613L17.582 5.85699C17.5342 5.85702 17.4845 5.85705 17.433 5.85708L16.101 5.85702C16.0267 5.857 15.9509 5.85697 15.8739 5.85693L14.3538 5.85601C14.2627 5.85594 14.1706 5.85587 14.0776 5.8558L13.2175 5.85511C13.1195 5.85503 13.0208 5.85495 12.9214 5.85486L12.0103 5.85406C11.9074 5.85397 11.8041 5.85388 11.7002 5.85378L11.0727 5.8532C10.9674 5.85311 10.8617 5.85301 10.7559 5.85291L9.79819 5.85201C9.69141 5.85191 9.58456 5.85181 9.47771 5.85172L8.83706 5.85112C8.73044 5.85102 8.62395 5.85092 8.51764 5.85083L7.88243 5.85025C7.77709 5.85015 7.67205 5.85006 7.56738 5.84997L6.63687 5.84917C6.53495 5.84908 6.43357 5.849 6.33281 5.84892L5.15688 5.84802C5.06199 5.84796 4.96795 5.84789 4.87483 5.84783ZM15.2875 8.04379C15.7015 8.04379 16.0375 8.37979 16.0375 8.79379C16.0375 9.20779 15.7015 9.54379 15.2875 9.54379H12.5155C12.1005 9.54379 11.7655 9.20779 11.7655 8.79379C11.7655 8.37979 12.1005 8.04379 12.5155 8.04379H15.2875Z" fill="#FF8914"/>
</svg>
