<svg width="16" height="13" viewBox="0 0 16 13" fill="none" xmlns="http://www.w3.org/2000/svg">
<path d="M14.6113 6.72756C14.5694 6.62863 14.5478 6.52228 14.5478 6.41484C14.5478 6.3074 14.5694 6.20105 14.6113 6.10212L15.782 3.35175C15.9376 2.98825 16.0011 2.59202 15.9671 2.1981C15.933 1.80419 15.8024 1.42475 15.5867 1.09335C15.3711 0.761951 15.0771 0.488817 14.7307 0.298114C14.3844 0.107411 13.9963 0.00501931 13.601 0H2.37503C1.97968 0.00501931 1.59166 0.107411 1.2453 0.298114C0.898951 0.488817 0.604943 0.761951 0.389296 1.09335C0.17365 1.42475 0.0430134 1.80419 0.0089465 2.1981C-0.0251205 2.59202 0.0384325 2.98825 0.193982 3.35175L1.36469 6.10212C1.40659 6.20105 1.42819 6.3074 1.42819 6.41484C1.42819 6.52228 1.40659 6.62863 1.36469 6.72756L0.193982 9.47793C0.0384325 9.84143 -0.0251205 10.2377 0.0089465 10.6316C0.0430134 11.0255 0.17365 11.4049 0.389296 11.7363C0.604943 12.0677 0.898951 12.3409 1.2453 12.5316C1.59166 12.7223 1.97968 12.8247 2.37503 12.8297H13.601C13.9984 12.8286 14.3893 12.7291 14.7389 12.54C15.0884 12.351 15.3857 12.0783 15.6041 11.7463C15.8225 11.4143 15.9553 11.0333 15.9905 10.6375C16.0258 10.2417 15.9624 9.84329 15.8061 9.47793L14.6113 6.72756ZM5.58245 3.20742C5.74104 3.20742 5.89607 3.25445 6.02793 3.34256C6.1598 3.43067 6.26257 3.5559 6.32326 3.70242C6.38396 3.84894 6.39983 4.01016 6.3689 4.16571C6.33795 4.32125 6.26159 4.46413 6.14944 4.57627C6.0373 4.68841 5.89443 4.76478 5.73888 4.79572C5.58334 4.82666 5.42211 4.81078 5.27559 4.75009C5.12907 4.6894 5.00384 4.58663 4.91573 4.45476C4.82762 4.3229 4.78059 4.16787 4.78059 4.00927C4.78059 3.79661 4.86507 3.59265 5.01545 3.44228C5.16583 3.2919 5.36978 3.20742 5.58245 3.20742ZM10.3936 9.62226C10.235 9.62226 10.08 9.57523 9.94809 9.48712C9.81623 9.39901 9.71345 9.27378 9.65276 9.12726C9.59207 8.98074 9.57619 8.81952 9.60713 8.66397C9.63807 8.50843 9.71444 8.36555 9.82658 8.25341C9.93872 8.14127 10.0816 8.0649 10.2371 8.03396C10.3927 8.00302 10.5539 8.0189 10.7004 8.07959C10.847 8.14028 10.9722 8.24305 11.0603 8.37492C11.1484 8.50678 11.1954 8.66181 11.1954 8.82041C11.1954 9.03307 11.111 9.23702 10.9606 9.3874C10.8102 9.53778 10.6062 9.62226 10.3936 9.62226ZM10.9629 4.57859L6.15176 9.38972C6.07722 9.46488 5.98854 9.52453 5.89082 9.56524C5.79311 9.60595 5.6883 9.62691 5.58245 9.62691C5.47659 9.62691 5.37179 9.60595 5.27407 9.56524C5.17636 9.52453 5.08767 9.46488 5.01313 9.38972C4.93797 9.31518 4.87832 9.22649 4.83761 9.12878C4.7969 9.03107 4.77594 8.92626 4.77594 8.82041C4.77594 8.71455 4.7969 8.60974 4.83761 8.51203C4.87832 8.41432 4.93797 8.32563 5.01313 8.25109L9.82426 3.43996C9.97525 3.28897 10.18 3.20414 10.3936 3.20414C10.6071 3.20414 10.8119 3.28897 10.9629 3.43996C11.1139 3.59095 11.1987 3.79574 11.1987 4.00927C11.1987 4.22281 11.1139 4.4276 10.9629 4.57859Z" fill="#77777E"/>
</svg>
