<svg width="20" height="20" viewBox="0 0 20 20" fill="none" xmlns="http://www.w3.org/2000/svg">
<circle cx="10" cy="10" r="9.5" fill="white" stroke="#FE7A15"/>
<path d="M12.8398 11.1715C12.7155 11.2983 12.6584 11.4817 12.6867 11.6616L13.1133 14.1473C13.1493 14.358 13.0649 14.5712 12.8974 14.693C12.7332 14.8193 12.5149 14.8344 12.3358 14.7334L10.2102 13.5663C10.1363 13.5249 10.0542 13.5026 9.97022 13.5001H9.84016C9.79505 13.5072 9.75089 13.5223 9.71058 13.5456L7.58446 14.7182C7.47935 14.7738 7.36032 14.7935 7.2437 14.7738C6.95958 14.7172 6.77 14.4323 6.81656 14.1317L7.2437 11.6459C7.27202 11.4646 7.2149 11.2801 7.0906 11.1513L5.35755 9.38301C5.21261 9.23497 5.16221 9.01267 5.22844 8.8121C5.29276 8.61203 5.45689 8.46601 5.65511 8.43317L8.0404 8.0689C8.22181 8.0492 8.38115 7.933 8.46274 7.76122L9.5138 5.49274C9.53876 5.44222 9.57092 5.39574 9.60979 5.35633L9.65298 5.32096C9.67554 5.29469 9.70146 5.27297 9.73025 5.25528L9.78257 5.23507L9.86416 5.19971H10.0662C10.2467 5.21941 10.4055 5.33309 10.4886 5.50284L11.5535 7.76122C11.6303 7.92643 11.7796 8.04112 11.9519 8.0689L14.3372 8.43317C14.5387 8.46349 14.7072 8.61 14.7739 8.8121C14.8368 9.01469 14.7826 9.23699 14.6347 9.38301L12.8398 11.1715Z" fill="#FE7A15"/>
</svg>
