<svg width="14" height="14" viewBox="0 0 14 14" fill="none" xmlns="http://www.w3.org/2000/svg">
<path d="M10.7864 8.56251C10.6206 8.7316 10.5445 8.97613 10.5822 9.21594L11.1511 12.5302C11.1991 12.8112 11.0865 13.0954 10.8631 13.2578C10.6443 13.4262 10.3531 13.4464 10.1144 13.3117L7.28026 11.7556C7.18171 11.7003 7.07228 11.6707 6.9603 11.6673H6.78688C6.72673 11.6767 6.66786 11.697 6.6141 11.7279L3.77927 13.2915C3.63913 13.3656 3.48043 13.3918 3.32493 13.3656C2.9461 13.2901 2.69334 12.9102 2.75541 12.5094L3.32493 9.19506C3.36269 8.95322 3.28654 8.70734 3.1208 8.53557L0.810062 6.17783C0.616808 5.98045 0.549616 5.68405 0.637925 5.41662C0.723674 5.14986 0.942525 4.95517 1.20681 4.91139L4.38719 4.42569C4.62908 4.39942 4.84154 4.24449 4.95032 4.01545L6.35174 0.990808C6.38501 0.923444 6.42789 0.86147 6.47972 0.808926L6.53731 0.761771C6.56739 0.726742 6.60195 0.697775 6.64034 0.674198L6.71009 0.647252L6.81888 0.600098H7.08828C7.32889 0.62637 7.5407 0.777938 7.65141 1.00428L9.07138 4.01545C9.17377 4.23573 9.37278 4.38864 9.60251 4.42569L12.7829 4.91139C13.0517 4.95181 13.2763 5.14716 13.3652 5.41662C13.449 5.68675 13.3767 5.98315 13.1796 6.17783L10.7864 8.56251Z" fill="white"/>
</svg>
